<svg width="360" height="350" viewBox="0 0 360 350" fill="none" xmlns="http://www.w3.org/2000/svg">
<g clip-path="url(#clip0_2_2)">
<rect width="360" height="350" fill="white"/>
<path d="M284.482 301.133C282.692 301.132 280.911 300.886 279.188 300.402L207.647 281.253L207.857 280.5L279.399 299.649C281.053 300.114 282.764 300.351 284.482 300.352C292.902 300.352 300.369 295.473 302.641 287.369L353.567 105.759H353.567L353.678 105.364C355.016 100.552 354.391 95.4056 351.942 91.0527C349.493 86.6999 345.418 83.4952 340.611 82.1407L225.617 49.8948C220.803 48.5514 215.653 49.172 211.296 51.6207C206.939 54.0693 203.731 58.146 202.375 62.9567L198.38 77.2081L197.627 76.9971L201.622 62.7456C203.034 57.7353 206.375 53.4894 210.913 50.9392C215.451 48.389 220.815 47.7427 225.828 49.1421L340.822 81.3879C345.767 82.7811 349.971 86.0549 352.532 90.5084C355.094 94.962 355.81 100.241 354.527 105.217L354.531 105.217L354.425 105.594L303.394 287.58C301.027 296.02 293.25 301.133 284.482 301.133Z" fill="#2F2E41"/>
<path d="M202.851 81.2663L204.16 81.6337L208.19 82.7634L208.612 81.2546L207.104 80.8324L208.429 76.1067L211.614 73.3393L212.463 82.3373L210.117 81.6767L209.695 83.1855L215.715 84.8741L216.137 83.3653L214.859 83.0096L213.631 71.5881L219.885 66.151L221.64 66.6435L222.063 65.1347L216.039 63.4461L215.617 64.9549L217.603 65.51L209.648 71.7601L211.853 63.8995L213.362 64.3217L213.784 62.8129L207.76 61.1243L207.338 62.6331L209.597 63.2663L204.848 80.1992L202.589 79.566L202.53 79.7692L202.288 80.6448L202.851 81.2663Z" fill="#6C63FF"/>
<path d="M212.541 95.5334C211.037 96.1849 209.569 96.9169 208.143 97.7263C207.881 97.8748 207.62 98.0272 207.362 98.1797V93.3445C207.364 91.6051 207.117 89.8743 206.631 88.2044C206.857 88.0637 207.088 87.9113 207.315 87.7588C207.522 87.622 207.733 87.4813 207.94 87.3406C209.226 90.2032 210.766 92.945 212.541 95.5334V95.5334Z" fill="#6C63FF"/>
<path d="M284.18 287.563L282.427 287.071L282.005 288.577L288.027 290.265L288.449 288.76L286.465 288.204L294.417 281.951L292.212 289.815L290.707 289.393L290.285 290.898L296.307 292.587L296.729 291.082L294.47 290.449L299.219 273.512L301.478 274.145L301.9 272.64L295.878 270.952L295.456 272.457L296.961 272.879L295.636 277.606L292.452 280.374L291.605 271.377L293.95 272.035L294.373 270.529L288.351 268.841L287.929 270.346L289.208 270.705L290.436 282.125L284.18 287.563Z" fill="#6C63FF"/>
<path d="M291.524 258.18C294.342 256.971 297.023 255.464 299.521 253.686C300.859 256.522 302.398 259.26 304.125 261.878C301.325 263.124 298.648 264.628 296.128 266.372C294.84 263.51 293.299 260.769 291.524 258.18V258.18Z" fill="#6C63FF"/>
<path d="M238.787 176.796C238.787 176.796 236.81 189.638 236.222 190.285C235.635 190.932 240.327 206.05 240.327 206.05L255.371 197.278C255.371 197.278 258.298 181.049 259.262 180.507C260.226 179.966 238.787 176.796 238.787 176.796Z" fill="#FFB8B8"/>
<path opacity="0.1" d="M238.787 176.796C238.787 176.796 236.81 189.638 236.222 190.285C235.635 190.932 240.327 206.05 240.327 206.05L255.371 197.278C255.371 197.278 258.298 181.049 259.262 180.507C260.226 179.966 238.787 176.796 238.787 176.796Z" fill="black"/>
<path d="M250.426 189.23C258.63 189.23 265.28 182.579 265.28 174.376C265.28 166.173 258.63 159.523 250.426 159.523C242.223 159.523 235.573 166.173 235.573 174.376C235.573 182.579 242.223 189.23 250.426 189.23Z" fill="#FFB8B8"/>
<path d="M243.989 197.334L242.694 196.159L236.876 187.879C236.876 187.879 236.208 187.439 235.575 189.698L234.942 191.956L229.476 194.077L217.381 245.895L249.748 254.971L263.078 203.093L256.817 196.466L256.124 193.269L246.458 197.215L243.989 197.334Z" fill="white"/>
<path d="M207.362 251.205L208.143 251.424L258.551 265.558L275.406 209.799C275.406 209.799 271.419 206.649 268.3 206.18C268.3 206.18 263.062 200.246 260.806 199.613C258.547 198.98 256.05 193.41 256.05 193.41C256.05 193.41 253.411 202.818 248.877 208.853C244.343 214.888 236.447 235.816 236.447 235.816L234.219 197.436L236.721 187.785C235.266 188.647 233.942 189.711 232.788 190.947C231.025 192.886 226.526 194.465 226.526 194.465C226.526 194.465 214.675 197.639 212.58 197.866C210.489 198.088 209.523 198.632 209.523 198.632L208.143 208.126L207.362 213.505V251.205Z" fill="#2F2E41"/>
<path d="M214.241 229.589C213.772 232.705 208.949 245.561 208.949 245.561L208.143 246.37L207.362 247.156V199.543C207.579 199.306 207.846 199.121 208.143 198.999C208.585 198.816 209.049 198.692 209.523 198.632L211.032 199.054C211.032 199.054 214.71 226.47 214.241 229.589Z" fill="#2F2E41"/>
<path d="M248.577 246.118C248.577 246.118 255.975 232.766 261.574 235.96C267.174 239.154 258.197 248.004 258.197 248.004L248.577 246.118Z" fill="#FFB8B8"/>
<path d="M225.679 240.915C225.679 240.915 211.482 236.528 211.166 237.657C210.849 238.786 206.962 245.409 208.091 245.726C209.22 246.042 217.982 248.093 217.877 248.47C217.771 248.846 222.076 250.865 222.076 250.865L225.679 240.915Z" fill="#FFB8B8"/>
<path d="M253.354 198.696L244.319 199.051L242.438 198.523L234.904 193.522L232.409 200.988L241.91 200.405L243.792 200.933L251.604 206.371L253.354 198.696Z" fill="#6C63FF"/>
<path d="M229.075 254.86L227.687 257.815L207.752 252.343L207.362 251.205V244.939L208.143 245.244L208.949 245.561L229.075 254.86Z" fill="#2F2E41"/>
<path d="M229.819 242.076C229.819 242.076 225.137 239.951 225.031 240.327C224.926 240.704 218.643 251.527 220.149 251.949C221.654 252.371 226.983 255.083 226.983 255.083L229.819 242.076Z" fill="white"/>
<path d="M272.771 209.059L275.406 209.798C275.406 209.798 276.911 210.22 277.031 212.689C277.15 215.158 279.194 226.692 278.23 227.234C277.266 227.775 276.995 227.294 277.537 228.257C278.078 229.221 278.56 228.95 277.973 229.597C277.385 230.245 276.038 250.976 271.669 257.87C267.3 264.764 265.974 268.046 264.468 267.624L225.446 256.682C225.446 256.682 227.184 241.337 228.795 241.383C230.406 241.428 256.797 247.205 256.797 247.205C256.797 247.205 267.02 207.852 272.771 209.059Z" fill="#2F2E41"/>
<path d="M241.675 158.096L239.238 156.348C239.238 156.348 246.503 152.266 254.259 154.973L252.661 152.13C252.661 152.13 258.642 151.678 262.123 158.242C263.953 161.693 266.056 165.735 266.916 169.866L269.822 170.681L267.929 172.767L271.494 176.383L267.259 174.725C267.084 176.935 266.335 179.061 265.085 180.892L263.337 183.329C263.337 183.329 261.604 174.328 261.88 173.341L261.189 175.808C261.189 175.808 259.098 172.827 259.513 171.347L257.548 172.659L257.569 169.738L247.68 169.892L249.783 168.087L243.902 167.236L246.883 165.145C246.883 165.145 239.57 166.553 238.562 169.197C237.554 171.842 233.379 174.396 233.379 174.396L232.59 171.514C232.59 171.514 233.483 159.79 241.675 158.096Z" fill="#2F2E41"/>
<path d="M236.568 163.44L236.685 162.934C237.814 158.016 229.126 148.872 229.038 148.78L228.884 148.619L228.944 148.404C229.116 147.791 229.805 147.246 235.846 148.556C238.199 149.066 240.544 149.687 241.526 149.954C241.417 147.146 237.936 143.426 237.899 143.387L237.461 142.923L238.073 142.743C242.086 141.567 246.782 145.468 248.283 146.849L250.792 137.902L255.757 145.235C258.805 140.673 263.213 140.858 263.406 140.868L264.025 140.902L263.727 141.446C261.639 145.267 261.263 147.777 261.241 149.014C266.798 142.413 271.805 142.988 272.023 143.017L272.782 143.117L272.256 143.673C264.981 151.359 264.125 161.499 264.117 161.601L264.091 161.942L236.568 163.44ZM229.904 148.561C231.44 150.226 238.082 157.739 237.532 162.604L263.373 161.199C263.586 159.39 264.897 150.782 271.075 143.804C269.392 143.955 265.419 144.915 261.235 150.262L260.755 150.875L260.55 150.124C260.518 150.006 259.818 147.257 262.72 141.673C261.39 141.798 258.292 142.495 256.103 146.15L255.788 146.676L251.09 139.736L248.678 148.336L248.205 147.857C248.153 147.803 243.112 142.756 238.921 143.358C239.996 144.611 242.571 147.91 242.289 150.504L242.239 150.963L241.795 150.838C236.858 149.454 231.221 148.273 229.904 148.561Z" fill="#6C63FF"/>
<path d="M273.971 140.957C273.704 140.882 273.465 140.73 273.285 140.519C273.104 140.309 272.99 140.05 272.957 139.774C272.924 139.499 272.974 139.22 273.099 138.973C273.225 138.725 273.421 138.521 273.662 138.385C273.904 138.249 274.181 138.188 274.457 138.209C274.734 138.231 274.998 138.334 275.216 138.505C275.434 138.676 275.596 138.908 275.682 139.172C275.768 139.436 275.774 139.719 275.699 139.986C275.599 140.344 275.36 140.647 275.036 140.829C274.712 141.011 274.329 141.057 273.971 140.957V140.957ZM274.517 139.01C274.399 138.977 274.273 138.98 274.157 139.018C274.04 139.056 273.937 139.128 273.862 139.224C273.786 139.32 273.74 139.437 273.731 139.56C273.721 139.682 273.748 139.804 273.809 139.911C273.869 140.018 273.959 140.105 274.069 140.16C274.178 140.216 274.301 140.238 274.423 140.223C274.545 140.209 274.66 140.158 274.753 140.078C274.846 139.999 274.913 139.893 274.947 139.775C274.991 139.616 274.97 139.447 274.89 139.304C274.809 139.16 274.675 139.055 274.517 139.01V139.01Z" fill="#6C63FF"/>
<path d="M264.234 138.227C263.967 138.152 263.729 138 263.548 137.789C263.368 137.579 263.254 137.319 263.221 137.044C263.188 136.769 263.237 136.49 263.363 136.242C263.488 135.995 263.684 135.791 263.926 135.655C264.168 135.519 264.444 135.458 264.721 135.479C264.997 135.501 265.261 135.603 265.479 135.775C265.697 135.946 265.86 136.178 265.946 136.442C266.032 136.705 266.038 136.989 265.963 137.256C265.862 137.613 265.624 137.917 265.3 138.099C264.975 138.281 264.592 138.327 264.234 138.227V138.227ZM264.78 136.28C264.662 136.247 264.537 136.249 264.42 136.287C264.304 136.326 264.201 136.397 264.125 136.494C264.049 136.59 264.004 136.707 263.994 136.829C263.985 136.952 264.012 137.074 264.072 137.181C264.132 137.288 264.223 137.375 264.332 137.43C264.442 137.486 264.565 137.508 264.687 137.493C264.809 137.478 264.923 137.428 265.016 137.348C265.11 137.268 265.177 137.163 265.21 137.045C265.254 136.886 265.234 136.717 265.153 136.573C265.073 136.43 264.939 136.324 264.78 136.28V136.28Z" fill="#6C63FF"/>
<path d="M249.434 136.702C249.167 136.628 248.928 136.475 248.748 136.265C248.568 136.054 248.454 135.795 248.421 135.519C248.388 135.244 248.437 134.965 248.563 134.718C248.688 134.471 248.884 134.266 249.126 134.13C249.368 133.994 249.644 133.933 249.921 133.955C250.197 133.976 250.461 134.079 250.679 134.25C250.897 134.422 251.059 134.654 251.145 134.917C251.232 135.181 251.238 135.464 251.163 135.731C251.062 136.089 250.823 136.392 250.499 136.574C250.175 136.756 249.792 136.802 249.434 136.702ZM249.98 134.755C249.862 134.722 249.737 134.725 249.62 134.763C249.504 134.801 249.401 134.873 249.325 134.969C249.249 135.066 249.204 135.182 249.194 135.305C249.185 135.427 249.212 135.549 249.272 135.656C249.332 135.763 249.423 135.85 249.532 135.906C249.641 135.961 249.765 135.983 249.887 135.968C250.008 135.954 250.123 135.903 250.216 135.824C250.309 135.744 250.377 135.638 250.41 135.52C250.454 135.362 250.434 135.192 250.353 135.049C250.273 134.905 250.138 134.8 249.98 134.755V134.755Z" fill="#6C63FF"/>
<path d="M225.807 147.93C225.54 147.855 225.301 147.703 225.121 147.492C224.94 147.282 224.826 147.022 224.793 146.747C224.76 146.472 224.81 146.193 224.935 145.946C225.061 145.698 225.257 145.494 225.499 145.358C225.74 145.222 226.017 145.161 226.293 145.182C226.57 145.204 226.834 145.307 227.052 145.478C227.27 145.649 227.432 145.881 227.518 146.145C227.604 146.409 227.61 146.692 227.535 146.959C227.435 147.317 227.196 147.62 226.872 147.802C226.548 147.984 226.165 148.03 225.807 147.93V147.93ZM226.353 145.983C226.235 145.95 226.11 145.953 225.993 145.991C225.876 146.029 225.774 146.101 225.698 146.197C225.622 146.293 225.576 146.41 225.567 146.533C225.558 146.655 225.585 146.777 225.645 146.884C225.705 146.991 225.795 147.078 225.905 147.133C226.014 147.189 226.137 147.211 226.259 147.196C226.381 147.182 226.496 147.131 226.589 147.051C226.682 146.972 226.75 146.866 226.783 146.748C226.827 146.589 226.807 146.42 226.726 146.277C226.645 146.133 226.511 146.028 226.353 145.983V145.983Z" fill="#6C63FF"/>
<path d="M234.943 141.565C234.676 141.491 234.437 141.338 234.257 141.128C234.076 140.917 233.963 140.658 233.93 140.382C233.897 140.107 233.946 139.828 234.071 139.581C234.197 139.334 234.393 139.129 234.635 138.993C234.877 138.857 235.153 138.796 235.43 138.818C235.706 138.839 235.97 138.942 236.188 139.113C236.406 139.285 236.568 139.517 236.654 139.78C236.741 140.044 236.747 140.327 236.672 140.594C236.571 140.952 236.332 141.255 236.008 141.437C235.684 141.619 235.301 141.665 234.943 141.565V141.565ZM235.489 139.618C235.371 139.585 235.246 139.588 235.129 139.626C235.012 139.664 234.91 139.736 234.834 139.832C234.758 139.929 234.713 140.045 234.703 140.168C234.694 140.29 234.721 140.412 234.781 140.519C234.841 140.626 234.931 140.713 235.041 140.769C235.15 140.824 235.274 140.846 235.396 140.831C235.517 140.817 235.632 140.766 235.725 140.687C235.818 140.607 235.886 140.501 235.919 140.383C235.963 140.225 235.943 140.055 235.862 139.912C235.782 139.768 235.647 139.663 235.489 139.618Z" fill="#6C63FF"/>
<path d="M281.54 273.223L281.164 273.117L207.482 252.456L207.693 251.703L280.998 272.259L327.33 107.036L224.018 78.0666L208.26 134.261L207.507 134.05L223.477 77.1027L223.852 77.2082L328.293 106.495L328.187 106.871L281.54 273.223Z" fill="#2F2E41"/>
<path d="M16.2739 288.349C21.1319 297.358 31.4424 301.226 31.4424 301.226C31.4424 301.226 33.8764 290.486 29.0184 281.477C24.1604 272.468 13.8499 268.6 13.8499 268.6C13.8499 268.6 11.4159 279.34 16.2739 288.349Z" fill="#2F2E41"/>
<path d="M19.613 285.385C28.3837 290.662 31.7616 301.143 31.7616 301.143C31.7616 301.143 20.9193 303.069 12.1486 297.792C3.37788 292.515 0 282.034 0 282.034C0 282.034 10.8423 280.108 19.613 285.385Z" fill="#6C63FF"/>
<path d="M207.315 87.7588C206.642 85.5433 205.573 83.468 204.16 81.6338C203.657 80.9783 203.113 80.3555 202.53 79.7693C200.745 77.9718 198.621 76.5455 196.282 75.5728C193.943 74.6 191.434 74.1 188.9 74.1015H69.471C64.3691 74.1067 59.4775 76.1357 55.8699 79.7434C52.2622 83.351 50.2332 88.2425 50.228 93.3445V282.35C50.2332 287.452 52.2622 292.344 55.8699 295.951C59.4775 299.559 64.3691 301.588 69.471 301.593H188.9C194.002 301.588 198.894 299.559 202.501 295.951C206.109 292.344 208.138 287.452 208.143 282.35V93.3445C208.145 91.4518 207.866 89.5694 207.315 87.7588V87.7588ZM207.362 282.35C207.356 287.245 205.409 291.937 201.948 295.398C198.487 298.859 193.795 300.806 188.9 300.812H69.471C64.5766 300.806 59.8843 298.859 56.4235 295.398C52.9626 291.937 51.0157 287.245 51.0098 282.35V93.3445C51.0157 88.4501 52.9626 83.7578 56.4235 80.2969C59.8843 76.8361 64.5766 74.8892 69.471 74.8833H188.9C191.406 74.8821 193.886 75.3926 196.188 76.3832C198.49 77.3739 200.566 78.8241 202.288 80.6448C202.48 80.8481 202.667 81.0553 202.851 81.2663C205.76 84.6175 207.362 88.9065 207.362 93.3445V282.35Z" fill="#2F2E41"/>
<path d="M69.2802 104.477C69.2585 104.426 69.2317 104.379 69.2079 104.33C70.0895 102.605 70.5343 100.69 70.5035 98.7532C70.5035 92.6939 66.717 88.462 61.2956 88.462C55.8743 88.462 52.0877 92.6939 52.0877 98.7532C52.0877 104.812 55.8743 109.044 61.2956 109.044C62.5753 109.07 63.8449 108.813 65.0136 108.291C66.1823 107.769 67.2212 106.996 68.0561 106.025C69.792 108.834 73.1477 109.205 73.3023 109.22L73.4853 107.424C73.3591 107.411 70.3801 107.062 69.2802 104.477ZM61.2956 107.239C56.9371 107.239 53.8932 103.749 53.8932 98.7532C53.8932 93.7569 56.9371 90.2675 61.2956 90.2675C65.6541 90.2675 68.698 93.7569 68.698 98.7532C68.7157 100.178 68.4347 101.59 67.8733 102.899C65.1785 101.262 60.1649 102.24 59.4849 102.384L59.8562 104.15C61.6978 103.765 65.3615 103.455 66.9563 104.456C66.3016 105.336 65.4466 106.048 64.4622 106.531C63.4779 107.015 62.3924 107.258 61.2956 107.239V107.239Z" fill="#6C63FF"/>
<path d="M61.9544 113.339C61.3668 112.752 60.5703 112.423 59.7399 112.423C58.9095 112.423 58.1132 112.753 57.526 113.34C56.9388 113.928 56.6088 114.724 56.6085 115.554C56.6082 116.385 56.9377 117.181 57.5244 117.769L61.9544 122.199L66.3844 117.769C66.9699 117.181 67.2983 116.385 67.2974 115.555C67.2966 114.725 66.9666 113.93 66.3799 113.343C65.7933 112.757 64.9978 112.427 64.1681 112.426C63.3384 112.425 62.5423 112.753 61.9544 113.339V113.339Z" fill="#6C63FF"/>
<path d="M189.091 272.429C189.113 272.48 189.14 272.526 189.163 272.575C188.282 274.3 187.837 276.215 187.868 278.152C187.868 284.212 191.654 288.443 197.076 288.443C202.497 288.443 206.284 284.212 206.284 278.152C206.284 272.093 202.497 267.861 197.076 267.861C195.796 267.835 194.526 268.092 193.358 268.614C192.189 269.136 191.15 269.91 190.315 270.88C188.579 268.071 185.224 267.701 185.069 267.685L184.886 269.481C185.012 269.495 187.991 269.843 189.091 272.429ZM197.076 269.667C201.434 269.667 204.478 273.156 204.478 278.152C204.478 283.149 201.434 286.638 197.076 286.638C192.717 286.638 189.673 283.149 189.673 278.152C189.656 276.728 189.937 275.316 190.498 274.006C193.193 275.644 198.206 274.665 198.886 274.522L198.515 272.755C196.674 273.141 193.01 273.45 191.415 272.449C192.07 271.569 192.925 270.858 193.909 270.374C194.893 269.89 195.979 269.648 197.076 269.667V269.667Z" fill="#6C63FF"/>
<path d="M196.417 263.567C197.005 264.153 197.801 264.481 198.631 264.481C199.461 264.48 200.257 264.15 200.843 263.563C201.43 262.976 201.76 262.181 201.761 261.351C201.762 260.521 201.433 259.725 200.847 259.137L196.417 254.707L191.987 259.137C191.401 259.725 191.072 260.521 191.073 261.351C191.074 262.181 191.404 262.976 191.99 263.563C192.577 264.15 193.373 264.48 194.203 264.481C195.033 264.481 195.829 264.153 196.417 263.567V263.567Z" fill="#6C63FF"/>
<path d="M138.819 181.48C133.498 172.489 122.97 172.07 122.97 172.07C122.97 172.07 112.711 170.758 106.129 184.452C99.9953 197.217 91.5294 209.541 104.766 212.529L107.158 205.087L108.638 213.083C110.523 213.218 112.414 213.251 114.302 213.18C128.478 212.722 141.978 213.314 141.543 208.227C140.966 201.464 143.94 190.132 138.819 181.48Z" fill="#2F2E41"/>
<path d="M119.188 212.116C119.214 213.128 119.206 214.195 118.703 215.074C117.706 216.816 115.272 217.077 113.808 218.45C112.268 219.893 112.094 222.237 112.021 224.346C111.944 226.551 111.879 228.829 112.684 230.884C113.177 232.015 113.8 233.086 114.541 234.074C115.434 235.362 116.337 236.645 117.247 237.922C117.733 238.641 118.275 239.321 118.867 239.955C120.498 241.616 122.734 242.535 124.967 243.191C126.41 243.615 127.968 243.945 129.399 243.485C130.346 243.115 131.219 242.578 131.976 241.9C133.041 241.054 134.122 240.192 134.893 239.072C136.095 237.329 136.428 235.146 136.677 233.043C137.414 226.824 137.7 220.56 137.535 214.3C137.565 213.618 137.443 212.937 137.177 212.308C136.436 210.861 134.45 210.552 133.404 209.306C132.509 208.242 132.473 206.723 132.481 205.332L132.5 201.792C132.531 201.494 132.471 201.193 132.328 200.93C132.198 200.788 132.042 200.673 131.868 200.592C131.693 200.511 131.505 200.464 131.313 200.456C129.113 200.091 126.882 199.942 124.653 200.011C122.846 200.066 119.378 199.915 117.816 200.921C116.397 201.835 118.173 204.358 118.502 205.776C118.944 207.861 119.173 209.985 119.188 212.116Z" fill="#A0616A"/>
<path d="M123.336 206.037C131.238 206.037 137.643 199.632 137.643 191.73C137.643 183.828 131.238 177.422 123.336 177.422C115.434 177.422 109.028 183.828 109.028 191.73C109.028 199.632 115.434 206.037 123.336 206.037Z" fill="#A0616A"/>
<path d="M117.444 227.169C116.534 225.816 115.785 224.361 115.213 222.835C114.701 221.289 114.567 219.561 115.174 218.049C113.628 217.152 111.529 217.878 110.403 219.267C109.277 220.655 108.933 222.516 108.833 224.301C108.734 226.086 108.839 227.897 108.451 229.641C107.592 233.502 104.403 236.675 104.166 240.623C103.932 244.506 106.596 247.89 107.906 251.553C108.7 253.836 109.032 256.255 108.882 258.668C108.84 259.446 108.791 260.334 109.34 260.888C109.626 261.138 109.965 261.32 110.331 261.421C116.653 263.646 123.481 263.838 130.181 264.008L141.247 264.288C141.916 264.368 142.594 264.254 143.201 263.961C144.193 263.352 144.326 261.988 144.343 260.823C144.489 250.795 144.062 240.768 143.636 230.747C143.481 227.115 143.324 223.462 142.554 219.909C142.357 219.005 142.036 217.999 141.201 217.599C140.494 217.261 139.655 217.48 138.92 217.752C135.49 219.027 132.526 221.309 130.415 224.298C128.145 227.53 127.028 231.406 124.806 234.662C123.193 237.025 122.261 234.966 121.186 233.226C119.939 231.206 118.692 229.187 117.444 227.169Z" fill="white"/>
<path d="M115.732 218.296C115.45 218.496 115.173 218.707 114.907 218.93C113.911 219.752 113.018 220.691 112.249 221.728C110.975 223.465 109.961 225.378 109.239 227.408C107.941 230.965 107.378 234.741 106.839 238.485C106.604 239.865 106.477 241.261 106.46 242.66C106.542 247.804 109.583 252.569 109.587 257.717C109.587 257.912 109.583 258.104 109.571 258.299C109.535 259.142 109.436 259.981 109.274 260.808C109.051 262.016 108.731 263.208 108.414 264.397C107.617 267.375 106.757 270.463 105.201 273.078C105.045 273.344 104.877 273.606 104.705 273.86H93.7603C93.8462 273.598 93.9362 273.34 94.0221 273.078C95.8866 267.555 97.7498 262.033 99.6117 256.513C100.182 254.824 100.753 253.128 101.156 251.392C101.616 249.249 101.931 247.077 102.098 244.892C102.528 240.362 102.81 235.822 102.946 231.274C102.997 229.64 103.032 227.971 103.56 226.423C104.054 225.161 104.708 223.969 105.506 222.874C106.636 221.173 107.765 219.473 108.895 217.773C109.524 216.827 110.185 215.853 111.154 215.263C111.964 214.767 112.925 214.587 113.777 214.169C114.313 213.864 114.828 213.524 115.317 213.149C116.592 212.246 118.089 211.296 119.187 212.218C119.365 212.366 119.518 212.542 119.64 212.738C119.703 212.835 119.759 212.935 119.809 213.039C120.864 215.322 117.15 217.292 115.732 218.296Z" fill="#2F2E41"/>
<path d="M151.786 273.86H101.097C101.371 273.61 101.64 273.348 101.902 273.078C101.941 273.039 101.977 273 102.016 272.961C103.954 270.948 104.396 268.474 105.369 265.855C106.1 263.881 106.831 261.908 107.562 259.937C107.678 259.553 107.868 259.196 108.121 258.885C108.333 258.667 108.598 258.508 108.891 258.424C109.112 258.356 109.341 258.314 109.571 258.299C109.901 258.277 110.231 258.277 110.56 258.299C119.656 258.768 128.745 259.34 137.828 260.015C139.001 260.105 140.173 260.195 141.346 260.285C142.304 260.996 143.25 261.75 144.152 262.548C147.088 265.128 149.633 268.165 151.091 271.753C151.266 272.187 151.427 272.629 151.56 273.078C151.646 273.336 151.72 273.598 151.786 273.86Z" fill="#2F2E41"/>
<path d="M136.467 180.614L126.065 175.165L111.702 177.394L108.73 190.52L116.128 190.235L118.194 185.413V190.156L121.608 190.024L123.589 182.347L124.827 190.52L136.962 190.272L136.467 180.614Z" fill="#2F2E41"/>
<path d="M151.786 273.86H140.341C140.259 273.602 140.181 273.34 140.107 273.078C139.298 270.171 138.705 267.208 138.332 264.213C138.211 263.357 138.106 262.497 138.008 261.641C137.945 261.098 137.887 260.558 137.828 260.015C137.171 253.98 136.667 247.886 134.822 242.109C134.599 241.409 134.357 240.713 134.122 240.018C133.689 238.82 133.349 237.59 133.106 236.339C132.606 233.478 132.981 230.515 132.465 227.658C132.176 226.063 131.601 224.66 131.253 223.198C131.032 222.316 130.945 221.405 130.995 220.497C131.838 219.702 132.898 219.177 134.04 218.988C134.435 218.922 134.881 218.871 135.119 218.554C135.26 218.313 135.323 218.035 135.299 217.757C135.326 215.913 135.221 214.07 134.982 212.242C134.904 211.601 134.807 210.96 134.689 210.322C134.685 210.291 134.678 210.264 134.674 210.233C135.627 209.818 136.702 209.814 137.738 209.818C138.868 209.822 139.993 209.822 141.119 209.826C143.203 209.834 145.286 209.84 147.369 209.846C149.308 209.85 151.313 209.869 153.076 210.67C154.898 211.503 156.281 213.109 157.196 214.892C158.111 216.674 158.607 218.636 159.057 220.587C159.181 221.127 159.247 221.679 159.252 222.233C159.338 226.634 156.055 231.066 155.726 235.565C155.621 237.023 155.742 238.493 155.609 239.951C155.476 241.413 155.085 242.844 155.015 244.306C155.011 244.38 155.007 244.458 155.007 244.532C154.964 246.436 155.519 248.3 156.16 250.094C157.153 252.881 158.361 255.582 159.608 258.268C160.812 260.867 162.047 263.455 163.157 266.089C163.734 267.312 164.123 268.616 164.31 269.955C164.433 271.032 164.228 272.121 163.72 273.078C163.59 273.315 163.434 273.536 163.255 273.739L163.247 273.747C163.212 273.786 163.177 273.825 163.141 273.86H151.786V273.86Z" fill="#2F2E41"/>
<path d="M162.688 269.85C162.64 270.37 162.498 270.877 162.27 271.347C162.25 271.393 162.231 271.436 162.211 271.483C161.984 272.019 161.754 272.547 161.515 273.078C161.398 273.336 161.281 273.598 161.16 273.86H154.687C154.921 273.615 155.138 273.354 155.336 273.078C156.328 271.698 156.903 270.021 157.915 268.532C158.053 268.329 158.211 268.14 158.388 267.969C160.01 266.398 162.79 266.719 162.688 269.85Z" fill="#FFB8B8"/>
<path d="M166.902 273.86C166.984 273.603 167.054 273.342 167.109 273.078C167.156 272.871 167.195 272.668 167.226 272.461C167.433 271.096 167.429 269.701 167.754 268.36C168.211 266.441 169.583 264.17 168.453 262.556C169.332 262.375 170.161 262.004 170.881 261.469C171.553 260.883 171.944 259.866 171.537 259.069C171.135 258.283 170.044 257.763 170.193 256.892C170.267 256.615 170.397 256.357 170.576 256.134C171.169 255.198 171.475 254.111 171.458 253.004C171.44 251.897 171.1 250.819 170.478 249.903C170.122 249.395 169.685 248.949 169.36 248.418C169.006 247.767 168.734 247.075 168.551 246.358C167.422 242.72 165.759 239.272 163.614 236.124C163.139 235.519 162.77 234.837 162.524 234.107C162.38 233.317 162.351 232.51 162.438 231.711C162.516 228.553 161.335 225.469 159.635 222.811C159.51 222.616 159.381 222.424 159.252 222.233C157.61 219.813 155.574 217.691 153.545 215.584C152.709 215.975 151.97 216.229 151.536 217.042C151.323 217.5 151.192 217.992 151.149 218.496C150.594 222.365 150.113 226.259 149.738 230.148C149.55 232.114 149.359 234.096 149.582 236.058C149.805 238.02 150.473 239.986 151.802 241.444C152.635 242.359 153.69 243.039 154.593 243.883C154.737 244.02 154.878 244.161 155.015 244.306C155.666 244.999 156.243 245.757 156.739 246.569C158.905 250.068 159.909 254.163 159.608 258.268C159.553 259.008 159.455 259.744 159.315 260.472C159.143 261.515 158.791 262.521 158.275 263.443C157.864 264.119 157.325 264.709 156.954 265.409C156.582 266.109 156.407 266.98 156.774 267.68C157.325 267.68 157.872 267.778 158.388 267.969C159.605 268.439 160.663 269.245 161.437 270.295C161.723 270.673 161.981 271.07 162.211 271.483C162.501 271.999 162.759 272.531 162.985 273.078C163.079 273.293 163.169 273.516 163.255 273.739C163.274 273.777 163.29 273.818 163.302 273.86H166.902Z" fill="#2F2E41"/>
<path d="M134.944 205.855L126.656 209.47L124.71 209.662L115.875 207.741L116.264 215.604L124.903 211.607L126.848 211.415L136.102 213.641L134.944 205.855Z" fill="#6C63FF"/>
<path d="M151.56 273.078C151.646 273.336 151.72 273.598 151.786 273.86H154.687C154.921 273.615 155.138 273.354 155.336 273.078H151.56ZM74.9511 101.482V273.86H183.029V101.482H74.9511ZM182.248 273.078H75.7329V102.264H182.248V273.078ZM151.56 273.078C151.646 273.336 151.72 273.598 151.786 273.86H154.687C154.921 273.615 155.138 273.354 155.336 273.078H151.56Z" fill="#2F2E41"/>
<path d="M110.463 176.896L110.53 176.56C110.55 176.46 112.463 166.465 107.534 157.1L107.177 156.423L107.935 156.531C108.153 156.562 113.129 157.36 116.697 165.217C117.011 164.02 117.326 161.502 116.347 157.259L116.207 156.655L116.812 156.789C117.001 156.831 121.295 157.843 122.998 163.059L129.758 157.339V166.631C131.576 165.707 137.152 163.219 140.698 165.434L141.238 165.773L140.692 166.101C140.645 166.129 136.29 168.771 135.426 171.445C136.443 171.453 138.87 171.488 141.272 171.632C147.443 172.003 147.96 172.713 147.96 173.35V173.573L147.768 173.686C147.658 173.751 136.823 180.21 136.583 185.25L136.559 185.769L110.463 176.896ZM134.929 172.224H134.468L134.543 171.769C134.972 169.195 138.342 166.713 139.716 165.797C135.843 164.086 129.627 167.585 129.561 167.622L128.976 167.956V159.025L122.579 164.438L122.418 163.846C121.297 159.736 118.502 158.229 117.255 157.749C118.541 163.909 117.126 166.367 117.063 166.473L116.662 167.14L116.366 166.42C113.781 160.141 110.215 158.145 108.635 157.545C112.7 165.933 111.638 174.574 111.354 176.373L135.856 184.704C136.64 179.871 145.065 174.43 146.993 173.241C145.803 172.609 140.055 172.224 134.929 172.224V172.224Z" fill="#6C63FF"/>
<path d="M105.214 152.62C105.214 152.343 105.296 152.072 105.45 151.841C105.604 151.611 105.823 151.431 106.079 151.325C106.335 151.219 106.617 151.191 106.889 151.245C107.161 151.299 107.411 151.433 107.607 151.629C107.803 151.825 107.937 152.075 107.991 152.347C108.045 152.619 108.017 152.901 107.911 153.157C107.805 153.413 107.625 153.632 107.395 153.786C107.164 153.94 106.893 154.022 106.616 154.022C106.244 154.022 105.887 153.874 105.625 153.611C105.362 153.348 105.214 152.992 105.214 152.62V152.62ZM105.995 152.62C105.995 152.743 106.032 152.863 106.1 152.965C106.168 153.067 106.265 153.146 106.378 153.193C106.492 153.24 106.616 153.253 106.737 153.229C106.857 153.205 106.967 153.146 107.054 153.059C107.141 152.972 107.2 152.862 107.224 152.741C107.248 152.621 107.236 152.496 107.189 152.383C107.142 152.27 107.062 152.173 106.96 152.105C106.858 152.036 106.738 152 106.616 152C106.451 152 106.293 152.066 106.177 152.182C106.061 152.298 105.996 152.456 105.995 152.62V152.62Z" fill="#6C63FF"/>
<path d="M115.325 152.62C115.325 152.343 115.408 152.072 115.562 151.841C115.716 151.611 115.935 151.431 116.191 151.325C116.447 151.219 116.729 151.191 117.001 151.245C117.273 151.299 117.523 151.433 117.719 151.629C117.915 151.825 118.049 152.075 118.103 152.347C118.157 152.619 118.129 152.901 118.023 153.157C117.917 153.413 117.737 153.632 117.506 153.786C117.276 153.94 117.005 154.022 116.728 154.022C116.356 154.022 115.999 153.874 115.737 153.611C115.474 153.348 115.326 152.992 115.325 152.62V152.62ZM116.107 152.62C116.107 152.743 116.144 152.863 116.212 152.965C116.28 153.067 116.377 153.146 116.49 153.193C116.603 153.24 116.728 153.253 116.849 153.229C116.969 153.205 117.079 153.146 117.166 153.059C117.253 152.972 117.312 152.862 117.336 152.741C117.36 152.621 117.348 152.496 117.301 152.383C117.254 152.27 117.174 152.173 117.072 152.105C116.97 152.036 116.85 152 116.728 152C116.563 152 116.405 152.066 116.289 152.182C116.173 152.298 116.107 152.456 116.107 152.62V152.62Z" fill="#6C63FF"/>
<path d="M129.988 155.148C129.988 154.871 130.07 154.6 130.224 154.369C130.378 154.139 130.597 153.959 130.853 153.853C131.109 153.747 131.391 153.719 131.663 153.773C131.935 153.827 132.185 153.961 132.381 154.157C132.577 154.353 132.711 154.603 132.765 154.875C132.819 155.147 132.791 155.429 132.685 155.685C132.579 155.941 132.399 156.16 132.169 156.314C131.938 156.468 131.667 156.55 131.39 156.55C131.018 156.55 130.662 156.402 130.399 156.139C130.136 155.877 129.988 155.52 129.988 155.148V155.148ZM130.769 155.148C130.769 155.271 130.806 155.391 130.874 155.493C130.942 155.595 131.039 155.675 131.152 155.721C131.266 155.768 131.39 155.781 131.511 155.757C131.631 155.733 131.742 155.674 131.828 155.587C131.915 155.5 131.974 155.39 131.998 155.269C132.022 155.149 132.01 155.024 131.963 154.911C131.916 154.798 131.836 154.701 131.734 154.633C131.632 154.564 131.512 154.528 131.39 154.528C131.225 154.528 131.068 154.594 130.951 154.71C130.835 154.826 130.77 154.984 130.769 155.148V155.148Z" fill="#6C63FF"/>
<path d="M149.706 172.339C149.706 172.061 149.788 171.79 149.942 171.56C150.096 171.329 150.315 171.149 150.571 171.043C150.828 170.937 151.109 170.909 151.381 170.963C151.653 171.018 151.903 171.151 152.099 171.347C152.295 171.543 152.429 171.793 152.483 172.065C152.537 172.337 152.509 172.619 152.403 172.875C152.297 173.131 152.117 173.35 151.887 173.504C151.656 173.658 151.385 173.741 151.108 173.741C150.736 173.74 150.38 173.592 150.117 173.329C149.854 173.067 149.706 172.71 149.706 172.339V172.339ZM150.488 172.339C150.488 172.461 150.524 172.581 150.592 172.683C150.66 172.785 150.757 172.865 150.871 172.912C150.984 172.959 151.109 172.971 151.229 172.947C151.349 172.923 151.46 172.864 151.547 172.777C151.633 172.69 151.692 172.58 151.716 172.46C151.74 172.339 151.728 172.214 151.681 172.101C151.634 171.988 151.555 171.891 151.453 171.823C151.351 171.755 151.231 171.718 151.108 171.718C150.943 171.718 150.786 171.784 150.67 171.9C150.553 172.016 150.488 172.174 150.488 172.339V172.339Z" fill="#6C63FF"/>
<path d="M142.627 163.743C142.627 163.466 142.71 163.195 142.864 162.964C143.018 162.734 143.237 162.554 143.493 162.448C143.749 162.342 144.031 162.314 144.303 162.368C144.575 162.422 144.825 162.556 145.021 162.752C145.217 162.948 145.351 163.198 145.405 163.47C145.459 163.742 145.431 164.024 145.325 164.28C145.219 164.536 145.039 164.755 144.809 164.909C144.578 165.063 144.307 165.145 144.03 165.145C143.658 165.145 143.301 164.997 143.039 164.734C142.776 164.472 142.628 164.115 142.627 163.743V163.743ZM143.409 163.743C143.409 163.866 143.446 163.986 143.514 164.088C143.582 164.19 143.679 164.27 143.792 164.317C143.906 164.364 144.03 164.376 144.151 164.352C144.271 164.328 144.382 164.269 144.468 164.182C144.555 164.095 144.614 163.985 144.638 163.864C144.662 163.744 144.65 163.619 144.603 163.506C144.556 163.393 144.476 163.296 144.374 163.228C144.272 163.159 144.152 163.123 144.03 163.123C143.865 163.123 143.707 163.189 143.591 163.305C143.475 163.421 143.409 163.579 143.409 163.743Z" fill="#6C63FF"/>
<path d="M360 300.635H4.69055V301.417H360V300.635Z" fill="#3F3D56"/>
</g>
<defs>
<clipPath id="clip0_2_2">
<rect width="360" height="350" fill="white"/>
</clipPath>
</defs>
</svg>
