<svg width="300" height="300" viewBox="0 0 360 360" fill="none" xmlns="http://www.w3.org/2000/svg">
<rect width="360" height="360" fill="white"/>
<path d="M308.726 134.725C289.989 57.8138 225.247 2.2946 149.255 0.0677748C109.079 -1.10949 66.8041 12.7996 36.0245 61.4727C-18.9974 148.481 39.4057 208.606 80.1228 237.177C99.7941 251.008 117.519 267.638 132.784 286.586C160.287 320.656 213.197 362.991 276.21 296.658C321.882 248.579 321.207 185.956 308.726 134.725Z" fill="#F2F2F2"/>
<path d="M359.583 306.003C359.583 324.882 280.663 360 181.251 360C81.8402 360 0 327.059 0 308.18C0 289.301 81.8402 291.633 181.251 291.633C280.663 291.633 359.583 287.124 359.583 306.003Z" fill="#3F3D56"/>
<path opacity="0.1" d="M359.583 306.003C359.583 324.882 280.663 360 181.251 360C81.8402 360 0 327.059 0 308.18C0 289.301 81.8402 291.633 181.251 291.633C280.663 291.633 359.583 287.124 359.583 306.003Z" fill="black"/>
<path d="M180 342.146C279.411 342.146 360 326.842 360 307.963C360 289.084 279.411 273.779 180 273.779C80.5887 273.779 0 289.084 0 307.963C0 326.842 80.5887 342.146 180 342.146Z" fill="#3F3D56"/>
<path d="M248.145 191.706V283.127L262.794 308.049L263.909 309.945H321.711L322.878 191.706H248.145Z" fill="#2F2E41"/>
<path opacity="0.1" d="M248.145 191.706V283.127L262.794 308.049L263.693 191.706H248.145Z" fill="black"/>
<path d="M108.604 189.267V280.689L93.955 305.611L92.8399 307.507H35.0381L33.8705 189.267H108.604Z" fill="#2F2E41"/>
<path opacity="0.1" d="M108.604 189.267V280.689L93.955 305.611L93.0556 189.267H108.604Z" fill="black"/>
<path d="M340.394 187.439V192.924H26.2804V185.001L55.4729 169.155H314.704L340.394 187.439Z" fill="#2F2E41"/>
<path opacity="0.1" d="M340.394 187.439V192.924H26.2804V185.001L340.394 187.439Z" fill="black"/>
<path opacity="0.1" d="M71.237 214.866H57.2246L51.3861 210.599H77.6595L71.237 214.866Z" fill="black"/>
<path opacity="0.1" d="M71.237 232.541H57.2246L51.3861 228.274H77.6595L71.237 232.541Z" fill="black"/>
<path opacity="0.1" d="M71.237 257.529H57.2246L51.3861 253.263H77.6595L71.237 257.529Z" fill="black"/>
<path opacity="0.1" d="M71.237 282.518H57.2246L51.3861 278.252H77.6595L71.237 282.518Z" fill="black"/>
<path opacity="0.1" d="M285.512 217.304H299.524L305.363 213.037H279.089L285.512 217.304Z" fill="black"/>
<path opacity="0.1" d="M285.512 234.978H299.524L305.363 230.712H279.089L285.512 234.978Z" fill="black"/>
<path opacity="0.1" d="M285.512 259.967H299.524L305.363 255.701H279.089L285.512 259.967Z" fill="black"/>
<path opacity="0.1" d="M285.512 284.956H299.524L305.363 280.689H279.089L285.512 284.956Z" fill="black"/>
<path d="M222.139 153.903L220.191 166.883C220.191 166.883 210.603 172.2 217.345 172.356C224.086 172.513 255.846 172.356 255.846 172.356C255.846 172.356 261.988 172.356 252.25 166.726L250.303 153.121L222.139 153.903Z" fill="#3F3D56"/>
<path opacity="0.1" d="M215.989 172.215C217.298 171.11 218.705 170.138 220.191 169.311L222.139 156.331L250.303 156.359L252.25 169.155C253.85 170.017 255.359 171.053 256.751 172.246C258.001 171.948 259.368 170.841 252.25 166.726L250.303 153.121L222.139 153.903L220.191 166.883C220.191 166.883 212.135 171.351 215.989 172.215Z" fill="black"/>
<path d="M295.054 63.4341H177.088C174.624 63.4341 172.627 65.5191 172.627 68.0912V151.044C172.627 153.616 174.624 155.701 177.088 155.701H295.054C297.518 155.701 299.515 153.616 299.515 151.044V68.0912C299.515 65.5191 297.518 63.4341 295.054 63.4341Z" fill="#3F3D56"/>
<path d="M295.246 68.3602H176.896V137.482H295.246V68.3602Z" fill="#F2F2F2"/>
<path d="M236.071 66.9527C236.485 66.9527 236.82 66.6026 236.82 66.1708C236.82 65.7389 236.485 65.3889 236.071 65.3889C235.657 65.3889 235.322 65.7389 235.322 66.1708C235.322 66.6026 235.657 66.9527 236.071 66.9527Z" fill="#F2F2F2"/>
<path d="M299.515 142.956V151.044C299.515 151.656 299.4 152.261 299.176 152.826C298.952 153.391 298.623 153.905 298.209 154.337C297.794 154.77 297.303 155.113 296.761 155.347C296.22 155.581 295.64 155.701 295.054 155.701H177.088C176.502 155.701 175.922 155.581 175.381 155.347C174.839 155.113 174.347 154.77 173.933 154.337C173.519 153.905 173.19 153.391 172.966 152.826C172.742 152.261 172.627 151.656 172.627 151.044V142.956H299.515Z" fill="#3F3D56"/>
<path d="M236.071 152.339C237.643 152.339 238.917 151.009 238.917 149.368C238.917 147.727 237.643 146.396 236.071 146.396C234.499 146.396 233.225 147.727 233.225 149.368C233.225 151.009 234.499 152.339 236.071 152.339Z" fill="#F2F2F2"/>
<path d="M231.635 180.801V182.365H151.038V181.114L151.149 180.801L153.135 175.171H229.987L231.635 180.801Z" fill="#3F3D56"/>
<path d="M262.652 179.27C262.505 179.925 261.951 180.616 260.698 181.27C256.204 183.616 247.066 180.645 247.066 180.645C247.066 180.645 240.025 179.393 240.025 176.109C240.222 175.968 240.429 175.84 240.642 175.726C242.531 174.683 248.796 172.108 259.905 175.835C260.723 176.103 261.454 176.603 262.017 177.28C262.266 177.535 262.453 177.849 262.564 178.195C262.674 178.541 262.704 178.909 262.652 179.27V179.27Z" fill="#3F3D56"/>
<path opacity="0.1" d="M262.652 179.27C257.151 181.47 252.248 181.634 247.216 177.986C244.678 176.147 242.372 175.692 240.642 175.726C242.531 174.683 248.797 172.108 259.905 175.835C260.723 176.103 261.454 176.603 262.017 177.28C262.266 177.535 262.453 177.849 262.564 178.195C262.674 178.541 262.704 178.909 262.652 179.27V179.27Z" fill="black"/>
<path d="M255.755 177.986C256.83 177.986 257.702 177.706 257.702 177.36C257.702 177.015 256.83 176.735 255.755 176.735C254.679 176.735 253.807 177.015 253.807 177.36C253.807 177.706 254.679 177.986 255.755 177.986Z" fill="#F2F2F2"/>
<path opacity="0.1" d="M231.635 180.801V182.365H151.038V181.114L151.149 180.801H231.635Z" fill="black"/>
<path d="M277.694 101.005C277.058 100.341 268.897 89.6099 267.519 87.8397C266.036 86.0696 265.4 86.4015 264.446 86.5121C263.492 86.6228 253.212 88.5035 252.046 88.6142C250.88 88.8354 250.138 89.278 250.88 90.3843C251.516 91.38 258.299 101.337 259.783 103.66L232.757 110.409L211.349 72.9041C210.501 71.5765 210.289 71.1339 208.381 71.2445C206.473 71.3551 191.53 72.6828 190.47 72.6828C189.41 72.7934 188.244 73.236 189.304 75.8912C190.364 78.5464 207.321 116.605 207.745 117.711C208.169 118.817 209.441 120.587 212.302 119.924C215.27 119.149 225.444 116.383 231.061 114.835C234.029 120.366 239.964 131.651 241.13 133.31C242.613 135.523 243.673 135.081 245.899 134.417C247.701 133.864 273.666 124.128 274.832 123.575C275.998 123.021 276.74 122.69 275.892 121.473C275.256 120.587 268.473 110.962 264.87 105.984C267.307 105.32 276.104 102.886 277.058 102.554C278.118 102.222 278.33 101.669 277.694 101.005V101.005ZM228.624 111.515C228.306 111.626 213.15 115.388 212.408 115.609C211.561 115.83 211.561 115.72 211.561 115.388C211.349 115.056 193.543 76.555 193.226 76.1125C193.014 75.6699 193.014 75.2274 193.226 75.2274C193.438 75.2274 207.533 73.8998 207.957 73.8998C208.487 73.8998 208.381 74.0104 208.593 74.3423C208.593 74.3423 228.412 110.077 228.73 110.63C229.154 111.184 228.942 111.405 228.624 111.515V111.515ZM271.229 119.813C271.441 120.256 271.759 120.477 270.911 120.698C270.169 121.03 245.369 129.77 244.839 129.991C244.309 130.213 243.991 130.323 243.355 129.328C242.719 128.332 234.665 113.839 234.665 113.839L261.054 106.648C261.69 106.426 261.902 106.316 262.326 106.979C262.75 107.754 271.017 119.481 271.229 119.813V119.813ZM272.925 100.341C272.289 100.452 262.644 102.997 262.644 102.997L254.696 91.7119C254.484 91.38 254.272 91.0481 254.801 90.9375C255.331 90.8269 264.34 89.1674 264.764 89.0567C265.188 88.9461 265.506 88.8354 266.036 89.6099C266.566 90.2737 273.348 99.3457 273.666 99.6776C273.984 100.01 273.56 100.231 272.925 100.341V100.341Z" fill="#FB503B"/>
<path d="M164.623 84.5405C173.435 84.5405 180.578 77.0839 180.578 67.8856C180.578 58.6874 173.435 51.2308 164.623 51.2308C155.812 51.2308 148.669 58.6874 148.669 67.8856C148.669 77.0839 155.812 84.5405 164.623 84.5405Z" fill="#FFB9B9"/>
<path d="M152.867 76.2131V102.51H178.899C178.899 102.51 175.54 80.5959 177.219 74.0216L152.867 76.2131Z" fill="#FFB9B9"/>
<path d="M204.51 111.714C204.51 111.714 179.738 99.0039 179.738 98.1274C179.738 97.2508 177.219 91.5531 175.54 91.5531C173.86 91.5531 159.585 86.7319 151.608 93.7445L150.768 99.4422L120.119 120.48L128.516 152.475C128.516 152.475 133.974 158.611 132.294 162.994C130.615 167.376 133.554 189.729 133.554 189.729L199.472 187.538V157.734C199.472 157.734 201.571 150.722 202.83 148.53C204.09 146.339 202.83 139.764 202.83 139.764L212.907 126.616C212.907 126.616 211.647 114.344 204.51 111.714Z" fill="#D0CDE1"/>
<path opacity="0.1" d="M121.168 131.218L123.058 120.48C123.058 120.48 112.141 170.006 113.401 175.704C114.66 181.402 123.897 190.167 125.157 190.606C126.416 191.044 138.172 152.913 138.172 152.913L121.168 131.218Z" fill="black"/>
<path d="M127.256 119.165L120.119 120.48C120.119 120.48 109.202 170.006 110.462 175.704C111.721 181.402 120.958 190.167 122.218 190.606C123.477 191.044 135.233 152.913 135.233 152.913L127.256 119.165Z" fill="#D0CDE1"/>
<path opacity="0.1" d="M206.819 133.848L210.388 126.616C210.388 126.616 215.426 176.142 212.067 180.963C208.709 185.785 195.422 187.589 195.422 187.589L195.273 151.598L206.819 133.848Z" fill="black"/>
<path d="M207.449 120.918L212.907 126.616C212.907 126.616 217.945 176.142 214.587 180.963C211.228 185.785 197.941 187.589 197.941 187.589L197.792 151.598L207.449 120.918Z" fill="#D0CDE1"/>
<path d="M125.997 196.303C125.997 196.303 113.821 191.482 111.721 200.686C109.622 209.89 116.76 251.089 116.76 251.089C116.76 251.089 121.378 282.207 124.317 283.084C127.256 283.96 140.272 284.399 142.371 280.454C144.47 276.51 136.073 236.187 136.073 236.187L184.777 235.311C184.777 235.311 181.838 270.374 180.158 273.442C178.479 276.51 178.479 287.028 180.158 287.028C181.838 287.028 200.311 286.152 201.571 283.522C202.83 280.892 209.968 221.724 209.968 221.724C209.968 221.724 215.846 201.124 209.128 202.439C202.411 203.754 125.997 196.303 125.997 196.303Z" fill="#3F3D56"/>
<path d="M197.792 281.769C197.792 281.769 201.991 278.701 204.09 281.769C206.189 284.837 207.029 288.343 197.792 293.603C188.555 298.862 181.418 297.547 181.418 296.671V283.96L197.792 281.769Z" fill="#2F2E41"/>
<path d="M125.157 280.454C125.157 280.454 120.958 277.386 118.859 280.454C116.76 283.522 115.92 287.028 125.157 292.288C134.394 297.547 141.531 296.232 141.531 295.356V282.646L125.157 280.454Z" fill="#2F2E41"/>
<path d="M164.727 46.8855C163.138 46.8279 161.551 47.0639 160.041 47.5827C158.87 48.0742 157.751 48.6922 156.703 49.4265L149.659 53.9989C149.061 54.2691 148.553 54.718 148.199 55.2892C147.845 55.8604 147.661 56.5281 147.671 57.2082L146.79 64.0893C146.568 65.8258 146.364 67.6828 147.108 69.2528C147.73 70.5633 148.915 71.46 149.89 72.5102C151.449 74.198 152.499 76.3273 152.908 78.6332C153.412 81.5061 153.09 84.9658 155.268 86.7993C156.447 87.792 158.054 87.9798 159.567 88.0721C163.702 88.3241 167.852 88.1574 171.956 87.5743C172.609 87.5233 173.245 87.3371 173.828 87.0267C174.569 86.5696 175.035 85.7625 175.471 84.9882C177.043 82.1927 178.665 79.2188 178.648 75.9768C178.639 74.373 178.246 72.6504 178.984 71.2435C179.374 70.6455 179.797 70.0719 180.251 69.5256C181.164 68.1858 181.342 66.4643 181.491 64.8271C181.966 59.5979 181.469 55.6184 177.777 51.9348C174.331 48.4962 169.427 46.9172 164.727 46.8855Z" fill="#2F2E41"/>
<path d="M125.536 248.082L111.523 322.439H118.529L131.958 249.301L125.536 248.082Z" fill="#2F2E41"/>
<path d="M170.492 254.177L179.25 339.505H185.089L179.834 251.739L170.492 254.177Z" fill="#2F2E41"/>
<path d="M194.43 251.739L206.691 308.421H212.53L200.853 250.52L194.43 251.739Z" fill="#2F2E41"/>
<path d="M147.722 251.739L145.971 296.841H150.641L154.145 251.739H147.722Z" fill="#2F2E41"/>
<path d="M115.61 240.159C115.61 240.159 106.268 174.945 132.542 173.116C158.815 171.288 196.182 173.116 196.182 173.116C196.182 173.116 217.785 171.288 211.362 240.159C211.362 240.159 217.201 260.272 164.654 258.443C112.107 256.615 115.61 240.159 115.61 240.159Z" fill="#6C63FF"/>
<path d="M354.994 266.79C354.994 278.163 348.518 282.133 340.529 282.133C332.54 282.133 326.064 278.163 326.064 266.79C326.064 255.418 340.529 240.951 340.529 240.951C340.529 240.951 354.994 255.418 354.994 266.79Z" fill="#6C63FF"/>
<path d="M340.15 270.876L346.315 259.102L340.173 269.383L340.24 265.104L344.489 256.585L340.258 263.971L340.377 256.274L344.928 249.493L340.396 255.064L340.471 240.951L340.021 258.834L335.413 251.472L339.965 260.343L339.534 268.939L339.521 268.711L334.188 260.932L339.505 269.517L339.451 270.592L339.442 270.608L339.446 270.696L338.352 282.167H339.814L339.989 281.241L345.293 272.676L340.002 280.394L340.15 270.876Z" fill="#3F3D56"/>
<path d="M349.767 306.802H332.522L328.065 280.506H353.255L349.767 306.802Z" fill="#2F2E41"/>
<path d="M96.3615 129.027H60.4867V172.933H96.3615V129.027Z" fill="#3F3D56"/>
<path d="M90.7947 135.84H66.0535V166.12H90.7947V135.84Z" fill="#F2F2F2"/>
<path d="M70.5469 149.227L74.2148 150.709V151.857L69.4219 149.637V148.781L74.2148 146.566V147.715L70.5469 149.227ZM76.1426 153.732H75.2109L78.7734 144.469H79.6992L76.1426 153.732ZM84.709 149.191L80.8359 147.674V146.561L85.8398 148.775V149.631L80.8359 151.852V150.727L84.709 149.191Z" fill="black"/>
</svg>
