<svg width="359" height="350" viewBox="0 0 109 100" fill="none" xmlns="http://www.w3.org/2000/svg">
<g id="img1 1" clip-path="url(#clip0_3_2)">
<path id="Vector" d="M78.0012 56.746V84.3703L82.6219 91.9007L82.9736 92.4735H101.206L101.574 56.746H78.0012Z" fill="#E6E6E6"/>
<path id="Vector_2" opacity="0.1" d="M78.0012 56.746V84.3703L82.6219 91.9007L82.9055 56.746H78.0012Z" fill="black"/>
<path id="Vector_3" d="M33.9863 56.0092V83.6336L29.3657 91.1641L29.014 91.7367H10.7819L10.4135 56.0092H33.9863Z" fill="#E6E6E6"/>
<path id="Vector_4" opacity="0.1" d="M33.9864 56.0092V83.6336L29.3657 91.1641L29.0821 56.0092H33.9864Z" fill="black"/>
<path id="Vector_5" d="M107.099 55.4569V57.1142H8.01942V54.7201L17.2275 49.9319H98.9958L107.099 55.4569Z" fill="#E6E6E6"/>
<path id="Vector_6" opacity="0.1" d="M107.099 55.4569V57.1142H8.01942V54.7201L107.099 55.4569Z" fill="black"/>
<path id="Vector_7" d="M22.2 63.7441H17.78L15.9384 62.455H24.2258L22.2 63.7441Z" fill="#3F3D56"/>
<path id="Vector_8" d="M22.2 69.0848H17.78L15.9384 67.7957H24.2258L22.2 69.0848Z" fill="#3F3D56"/>
<path id="Vector_9" d="M22.2 76.6356H17.78L15.9384 75.3463H24.2258L22.2 76.6356Z" fill="#3F3D56"/>
<path id="Vector_10" d="M22.2 84.1861H17.78L15.9384 82.897H24.2258L22.2 84.1861Z" fill="#3F3D56"/>
<path id="Vector_11" d="M89.7876 64.4807H94.2076L96.0492 63.1916H87.7618L89.7876 64.4807Z" fill="#3F3D56"/>
<path id="Vector_12" d="M89.7876 69.8214H94.2076L96.0492 68.5323H87.7618L89.7876 69.8214Z" fill="#3F3D56"/>
<path id="Vector_13" d="M89.7876 77.3722H94.2076L96.0492 76.0831H87.7618L89.7876 77.3722Z" fill="#3F3D56"/>
<path id="Vector_14" d="M89.7876 84.9228H94.2076L96.0492 83.6336H87.7618L89.7876 84.9228Z" fill="#3F3D56"/>
<path id="Vector_15" d="M92.7975 17.9871H55.588C55.4032 17.987 55.2202 18.0234 55.0494 18.0941C54.8787 18.1648 54.7236 18.2685 54.5929 18.3992C54.4622 18.5299 54.3586 18.685 54.2878 18.8557C54.2171 19.0265 54.1807 19.2095 54.1808 19.3943V44.4595C54.1807 44.6444 54.2171 44.8274 54.2878 44.9981C54.3586 45.1688 54.4622 45.324 54.5929 45.4547C54.7236 45.5853 54.8787 45.689 55.0494 45.7597C55.2202 45.8304 55.4032 45.8668 55.588 45.8668H69.713L69.1838 49.2454C69.1838 49.2454 66.1596 50.852 68.286 50.8993C70.4124 50.9465 80.4302 50.8993 80.4302 50.8993C80.4302 50.8993 82.3676 50.8993 79.2961 49.1982L78.7983 45.8668H92.7975C92.9823 45.8668 93.1653 45.8304 93.336 45.7597C93.5068 45.689 93.6619 45.5853 93.7926 45.4547C93.9232 45.324 94.0269 45.1688 94.0976 44.9981C94.1683 44.8274 94.2047 44.6444 94.2047 44.4595V19.3943C94.2047 19.2095 94.1683 19.0265 94.0976 18.8557C94.0269 18.685 93.9232 18.5299 93.7926 18.3992C93.6619 18.2685 93.5068 18.1648 93.336 18.0941C93.1653 18.0234 92.9823 17.987 92.7975 17.9871V17.9871Z" fill="#3F3D56"/>
<path id="Vector_16" d="M92.858 19.4756H55.5275V40.3617H92.858V19.4756Z" fill="#F2F2F2"/>
<path id="Vector_17" d="M74.1927 19.0503C74.3232 19.0503 74.429 18.9445 74.429 18.814C74.429 18.6835 74.3232 18.5777 74.1927 18.5777C74.0622 18.5777 73.9565 18.6835 73.9565 18.814C73.9565 18.9445 74.0622 19.0503 74.1927 19.0503Z" fill="#F2F2F2"/>
<path id="Vector_18" d="M74.1927 44.8508C74.6886 44.8508 75.0905 44.4488 75.0905 43.953C75.0905 43.4571 74.6886 43.0552 74.1927 43.0552C73.6969 43.0552 73.2949 43.4571 73.2949 43.953C73.2949 44.4488 73.6969 44.8508 74.1927 44.8508Z" fill="#F2F2F2"/>
<path id="Vector_19" d="M72.7937 53.451V53.9236H47.3712V53.5455L47.4061 53.451L48.0327 51.7499H72.2739L72.7937 53.451Z" fill="#3F3D56"/>
<path id="Vector_20" d="M82.5771 52.9884C82.5307 53.1864 82.3559 53.3952 81.9609 53.5928C80.5433 54.3016 77.6608 53.4037 77.6608 53.4037C77.6608 53.4037 75.4398 53.0257 75.4398 52.0334C75.5022 51.9907 75.5672 51.952 75.6345 51.9176C76.2305 51.6023 78.2067 50.8242 81.7106 51.9506C81.9688 52.0316 82.1993 52.1827 82.3767 52.387C82.4552 52.4643 82.5143 52.5591 82.5492 52.6636C82.584 52.7681 82.5936 52.8794 82.5771 52.9884Z" fill="#3F3D56"/>
<path id="Vector_21" opacity="0.1" d="M82.5771 52.9884C80.8419 53.6532 79.2953 53.7029 77.708 52.6004C77.1078 52.1567 76.381 51.9173 75.6345 51.9176C76.2305 51.6023 78.2067 50.8242 81.7106 51.9506C81.9688 52.0316 82.1993 52.1827 82.3767 52.387C82.4552 52.4643 82.5144 52.5591 82.5492 52.6636C82.584 52.7681 82.5936 52.8794 82.5771 52.9884Z" fill="black"/>
<path id="Vector_22" d="M80.4015 52.6004C80.7408 52.6004 81.0158 52.5158 81.0158 52.4114C81.0158 52.307 80.7408 52.2224 80.4015 52.2224C80.0622 52.2224 79.7872 52.307 79.7872 52.4114C79.7872 52.5158 80.0622 52.6004 80.4015 52.6004Z" fill="#F2F2F2"/>
<path id="Vector_23" opacity="0.1" d="M72.7937 53.451V53.9236H47.3712V53.5455L47.4061 53.451H72.7937Z" fill="black"/>
<path id="Vector_24" d="M15.0364 2.72724e-05C14.7784 -0.0211565 14.52 0.0365581 14.2956 0.165523C14.0752 0.316461 13.9362 0.580887 13.7944 0.826951C13.2523 1.77899 12.5183 2.60805 11.6391 3.26163C10.9986 3.73081 10.1844 4.31581 10.294 5.18085C10.3518 5.46653 10.4573 5.74041 10.6061 5.99101C11.1969 7.18367 12.8092 8.10534 12.6506 9.46626C13.2376 8.48356 12.4525 7.99765 13.0395 7.01497C13.319 6.54698 13.8046 6.01872 14.2267 6.31261C14.368 6.41102 14.4608 6.58751 14.6079 6.67385C14.959 6.87988 15.3325 6.486 15.6433 6.20702C16.715 5.24498 18.239 5.49701 19.5726 5.79676C20.2022 5.93827 20.8937 6.12393 21.2659 6.72566C21.7552 7.51681 20.801 8.37127 20.5599 9.26574C20.5402 9.34196 20.5393 9.42181 20.5572 9.49847C20.5751 9.57512 20.6113 9.6463 20.6627 9.70591C20.7141 9.76553 20.7792 9.8118 20.8524 9.84078C20.9256 9.86976 21.0047 9.88058 21.083 9.87232C21.4831 9.83285 21.9571 9.8005 21.9808 9.6249C22.4843 9.64282 23.1012 9.5858 23.3169 9.06157C23.3828 8.85416 23.4176 8.63812 23.4203 8.42049C23.4995 7.5399 23.8732 6.73653 24.1208 5.89841C24.3684 5.06029 24.476 4.07807 24.0582 3.33499C23.9091 3.08775 23.7247 2.86362 23.5108 2.66967C21.1397 0.375035 18.0222 -0.00337882 15.0364 2.72724e-05Z" fill="#2F2E41"/>
<path id="Vector_25" d="M13.1663 11.1852C13.1663 11.1852 13.682 15.4825 11.7912 15.8263C9.90033 16.1701 13.5101 22.0144 13.5101 22.0144L22.1047 23.0458L20.042 16.1701C20.042 16.1701 18.6669 15.6544 19.5263 12.2165C20.3858 8.77868 13.1663 11.1852 13.1663 11.1852Z" fill="#FFB8B8"/>
<path id="Vector_26" d="M7.92356 85.0131L8.6112 94.4673H12.2208L11.1896 85.0131H7.92356Z" fill="#FFB8B8"/>
<path id="Vector_27" d="M34.3951 67.1363L34.9107 75.0433L38.8643 73.3244L37.3172 66.7925L34.3951 67.1363Z" fill="#FFB8B8"/>
<path id="Vector_28" d="M5.34518 48.9156C5.34518 48.9156 5.51707 58.8854 6.54843 62.1514C7.5798 65.4173 7.40789 65.5892 7.236 66.1049C7.06411 66.6206 6.89222 66.2768 6.89222 67.1363C6.89222 67.9957 6.54843 81.5753 6.89222 82.7785C7.236 83.9818 5.86086 86.0445 6.89222 86.2164C7.92357 86.3883 12.7366 86.2164 12.9085 85.185C13.0804 84.1537 11.5333 83.8099 12.2209 83.1223C12.9085 82.4347 13.9398 68.3395 13.9398 68.3395L16.3463 58.5416L20.8155 53.3848H30.2696L33.1918 64.7298C33.1918 64.7298 31.9886 67.9957 32.848 67.9957C33.7075 67.9957 38.8643 69.0271 38.8643 65.2455C38.8643 61.4638 37.1453 50.2908 36.8016 49.947C36.4578 49.6032 36.9734 48.4 36.4578 47.8843C35.9421 47.3686 29.9258 43.7589 27.6912 43.0713C25.4566 42.3837 22.3219 41.5654 22.3219 41.5654L5.34518 48.9156Z" fill="#2F2E41"/>
<path id="Vector_29" d="M38.8643 71.9493C38.8643 71.9493 36.2859 71.0898 35.0826 73.6682C33.8794 76.2466 34.3951 76.9342 34.3951 76.9342C34.3951 76.9342 38.3486 78.3093 39.0362 77.6217C39.3353 77.3226 40.2852 77.2187 41.263 77.1967C42.7522 77.1633 43.1484 75.0564 41.742 74.5658C41.7 74.5512 41.6575 74.5385 41.6145 74.5277C40.2394 74.1839 38.8643 71.9493 38.8643 71.9493Z" fill="#2F2E41"/>
<path id="Vector_30" d="M17.0339 14.0214C19.8819 14.0214 22.1907 11.7126 22.1907 8.86462C22.1907 6.01661 19.8819 3.70784 17.0339 3.70784C14.1859 3.70784 11.8771 6.01661 11.8771 8.86462C11.8771 11.7126 14.1859 14.0214 17.0339 14.0214Z" fill="#FFB8B8"/>
<path id="Vector_31" d="M10.3301 17.9749C10.3301 17.9749 18.7528 19.6939 20.8155 16.9436C22.8782 14.1933 23.7377 24.6788 23.7377 24.6788L24.7691 35.6799L23.222 41.6962C23.222 41.6962 15.1431 48.2281 12.5647 48.7438C9.98628 49.2594 6.03275 49.6032 6.03275 49.6032C6.03275 49.6032 7.236 30.5231 7.236 30.1793C7.236 29.8355 10.3301 17.9749 10.3301 17.9749Z" fill="#6C63FF"/>
<path id="Vector_32" d="M12.8916 14.7512C12.8916 14.7512 11.0176 13.6776 10.502 14.709C9.98628 15.7403 5.17328 18.3187 4.6576 18.3187C4.14192 18.3187 5.68896 32.5858 5.00139 34.3048C4.31382 36.0237 1.04786 48.5719 2.93868 49.6032C4.8295 50.6346 3.45435 48.5719 5.34517 51.1503C7.236 53.7286 16.5182 53.7286 17.0339 52.6973C17.5496 51.6659 12.9085 43.9307 13.7679 36.7113C14.6274 29.4918 16.0025 19.522 14.7993 18.1468C13.596 16.7717 12.8916 14.7512 12.8916 14.7512Z" fill="#2F2E41"/>
<path id="Vector_33" d="M19.0966 15.9122L19.336 15.0883C19.336 15.0883 26.488 17.4593 26.8318 19.0063C27.1756 20.5533 27.0037 31.3826 25.8004 32.242C24.5972 33.1015 22.8782 34.4766 24.0815 36.5394C25.2847 38.6021 26.6599 40.8367 27.6912 41.0086C28.7226 41.1805 30.6134 42.3837 30.0977 43.587C29.5821 44.7902 23.3939 42.5556 23.3939 42.5556C23.3939 42.5556 19.2685 39.4615 19.4404 34.6485C19.6123 29.8355 19.0966 15.9122 19.0966 15.9122Z" fill="#2F2E41"/>
<path id="Vector_34" d="M25.1128 36.1956L20.9874 43.9307C20.9874 43.9307 14.9712 50.1189 18.409 50.8065C21.8469 51.494 23.7377 45.134 23.7377 45.134L28.2069 38.774L25.1128 36.1956Z" fill="#FFB8B8"/>
<path id="Vector_35" d="M15.2876 1.34928C15.0798 1.33388 14.8716 1.37426 14.6845 1.46626C14.5154 1.58976 14.3761 1.74948 14.2766 1.93375C13.8181 2.62341 13.2205 3.20956 12.522 3.65456C12.0007 3.98618 11.3379 4.39965 11.4271 5.01106C11.4755 5.21605 11.5617 5.41023 11.6812 5.58367C12.1638 6.43515 12.3559 7.42066 12.2285 8.39107L13.662 6.3074C13.8896 5.97664 14.2849 5.60326 14.6285 5.81098C14.7435 5.88053 14.819 6.00528 14.9388 6.06631C15.2246 6.21192 15.5287 5.93354 15.7817 5.73635C16.6541 5.05638 17.8947 5.23452 18.9803 5.44638C19.4928 5.5464 20.0557 5.67762 20.3587 6.10292C20.8622 6.80969 20.3365 7.83092 20.6303 8.64741C20.7125 8.58982 20.7824 8.51631 20.8357 8.43122C20.889 8.34613 20.9247 8.25121 20.9407 8.15208C21.3505 8.16475 21.8527 8.12445 22.0283 7.75392C22.0817 7.60871 22.1101 7.45551 22.1124 7.30081C22.1769 6.67841 22.4811 6.1106 22.6827 5.51822C22.8842 4.92585 22.9719 4.23162 22.6317 3.70641C22.5073 3.52846 22.3571 3.36998 22.1861 3.23616C20.2559 1.61434 17.7181 1.34688 15.2876 1.34928Z" fill="#2F2E41"/>
<path id="Vector_36" d="M25.1128 18.3187L26.7144 18.7438C26.7144 18.7438 30.4415 28.2885 29.5821 34.8204C28.7226 41.3524 28.2069 39.9772 28.2069 39.9772C28.2069 39.9772 26.8318 36.8831 23.7377 37.5707L25.1128 18.3187Z" fill="#2F2E41"/>
<path id="Vector_37" d="M8.16171 93.2178C7.7472 93.7811 7.83031 94.5863 7.46313 95.1815C7.14486 95.6975 6.54503 95.968 6.14693 96.4252C6.0199 96.5771 5.90666 96.74 5.80854 96.912C5.43924 97.5305 5.13907 98.3233 5.50278 98.9452C5.79536 99.4455 6.41035 99.641 6.97437 99.7743C7.68725 99.9427 8.42795 100.078 9.14906 99.9488C9.87018 99.8201 10.5749 99.3785 10.8321 98.6926C10.8826 98.5201 10.9427 98.3506 11.012 98.1848C11.4029 97.4154 12.6288 97.407 13.0288 96.6423C13.3087 96.1071 13.0514 95.4602 12.7942 94.9137L12.0086 93.2447C11.7479 92.6909 10.691 93.0094 10.14 92.8767C9.42145 92.7036 8.67866 92.5129 8.16171 93.2178Z" fill="#2F2E41"/>
<path id="Vector_38" d="M2.423 39.6334L9.64249 50.8065C9.64249 50.8065 14.1117 56.4789 15.4868 53.9005C16.862 51.3221 10.6738 47.0248 10.6738 47.0248L6.03274 38.4302L2.423 39.6334Z" fill="#FFB8B8"/>
<path id="Vector_39" d="M6.03274 18.6625L4.6576 18.3187C4.6576 18.3187 1.90732 19.1782 1.21975 22.7879C0.532178 26.3977 1.04785 40.8367 1.90732 41.0086C2.76678 41.1805 6.1522 38.4945 6.6941 39.0639C7.236 39.6334 5.51706 36.7113 6.03274 35.1642C6.54841 33.6172 6.03274 18.6625 6.03274 18.6625Z" fill="#2F2E41"/>
<g id="Group 13">
<path id="Rectangle 55" d="M70.6594 26.3353H66.2167V27.4048H70.6594V26.3353Z" fill="#6C63FF"/>
<path id="Rectangle 56" d="M86.0445 26.3353H84.4813V27.4048H86.0445V26.3353Z" fill="#6C63FF"/>
<path id="Rectangle 57" d="M89.1709 26.3353H87.6077V27.4048H89.1709V26.3353Z" fill="#6C63FF"/>
<path id="Rectangle 58" d="M82.8359 26.3353H72.2226V27.4048H82.8359V26.3353Z" fill="#6C63FF"/>
<path id="Rectangle 59" d="M65.0649 33.2462H60.6221V34.3158H65.0649V33.2462Z" fill="#6C63FF"/>
<path id="Rectangle 60" d="M80.4499 33.2462H78.8868V34.3158H80.4499V33.2462Z" fill="#6C63FF"/>
<path id="Rectangle 61" d="M83.5763 33.2462H82.0131V34.3158H83.5763V33.2462Z" fill="#6C63FF"/>
<path id="Rectangle 62" d="M77.2413 33.2462H66.628V34.3158H77.2413V33.2462Z" fill="#6C63FF"/>
<path id="Rectangle 63" d="M83.4118 28.7212H78.969V29.7908H83.4118V28.7212Z" fill="#6C63FF"/>
<path id="Rectangle 64" d="M89.4177 28.7212H84.975V29.7908H89.4177V28.7212Z" fill="#6C63FF"/>
<path id="Rectangle 66" d="M62.1853 28.7212H60.6221V29.7908H62.1853V28.7212Z" fill="#6C63FF"/>
<path id="Rectangle 67" d="M65.3117 28.7212H63.7485V29.7908H65.3117V28.7212Z" fill="#6C63FF"/>
<path id="Rectangle 68" d="M77.4881 28.7212H66.8749V29.7908H77.4881V28.7212Z" fill="#6C63FF"/>
<path id="Rectangle 69" d="M74.1972 31.0248H69.7544V32.0944H74.1972V31.0248Z" fill="#6C63FF"/>
<path id="Rectangle 70" d="M68.1912 31.0248H63.7485V32.0944H68.1912V31.0248Z" fill="#6C63FF"/>
<path id="Rectangle 71" d="M62.1853 31.0248H60.6221V32.0944H62.1853V31.0248Z" fill="#6C63FF"/>
<path id="Rectangle 73" d="M89.4177 31.0248H87.8545V32.0944H89.4177V31.0248Z" fill="#6C63FF"/>
<path id="Rectangle 74" d="M86.2913 31.0248H75.6781V32.0944H86.2913V31.0248Z" fill="#6C63FF"/>
</g>
</g>
<defs>
<clipPath id="clip0_3_2">
<rect width="200" height="100" fill="white" transform="translate(-46)"/>
</clipPath>
</defs>
</svg>
